<svg id="SvgjsSvg1023" width="256" height="256" xmlns="http://www.w3.org/2000/svg" version="1.1" xmlns:xlink="http://www.w3.org/1999/xlink" xmlns:svgjs="http://svgjs.com/svgjs"><defs id="SvgjsDefs1024"></defs><g id="SvgjsG1025"><svg xmlns="http://www.w3.org/2000/svg" viewBox="0 0 32 32" width="256" height="256"><circle cx="7.5" cy="8.5" r="7.5" fill="#00bbff" class="color0bf svgShape"></circle><circle cx="23" cy="23" r="8" fill="#00bbff" class="color0bf svgShape"></circle><polyline fill="none" stroke="#000" stroke-linecap="round" stroke-linejoin="round" stroke-width="2" points="4 12 7.5 4 11 12"></polyline><line x1="5.5" x2="9.5" y1="10" y2="10" fill="none" stroke="#000" stroke-linejoin="round" stroke-width="2" class="colorStroke000 svgStroke"></line><line x1="18" x2="28" y1="21" y2="21" fill="none" stroke="#000" stroke-linecap="round" stroke-linejoin="round" stroke-width="2" class="colorStroke000 svgStroke"></line><path fill="none" stroke="#000" stroke-linecap="round" stroke-linejoin="round" stroke-width="2" d="M26 21.5C26 25 21 28 19 28M27 28c-2 0-7-3-7-6.5" class="colorStroke000 svgStroke"></path><line x1="23" x2="23" y1="20.5" y2="18" fill="none" stroke="#000" stroke-linecap="round" stroke-linejoin="round" stroke-width="2" class="colorStroke000 svgStroke"></line><path fill="none" stroke="#000" stroke-linecap="round" stroke-miterlimit="10" stroke-width="2" d="M14.411,25.443a5.543,5.543,0,0,1-4.629.123,5.882,5.882,0,0,1-3.3-7.579" class="colorStroke000 svgStroke"></path><line x1="6.484" x2="3.589" y1="17.988" y2="20.091" fill="none" stroke="#000" stroke-linecap="round" stroke-miterlimit="10" stroke-width="2" class="colorStroke000 svgStroke"></line><line x1="6.483" x2="8.998" y1="17.987" y2="20.328" fill="none" stroke="#000" stroke-linecap="round" stroke-miterlimit="10" stroke-width="2" class="colorStroke000 svgStroke"></line><path fill="none" stroke="#000" stroke-linecap="round" stroke-miterlimit="10" stroke-width="2" d="M16.589,6.557a5.543,5.543,0,0,1,4.629-.123,5.882,5.882,0,0,1,3.3,7.579" class="colorStroke000 svgStroke"></path><line x1="24.516" x2="27.411" y1="14.012" y2="11.909" fill="none" stroke="#000" stroke-linecap="round" stroke-miterlimit="10" stroke-width="2" class="colorStroke000 svgStroke"></line><line x1="24.517" x2="22.002" y1="14.013" y2="11.672" fill="none" stroke="#000" stroke-linecap="round" stroke-miterlimit="10" stroke-width="2" class="colorStroke000 svgStroke"></line></svg></g></svg>